<svg xmlns="http://www.w3.org/2000/svg" width="720" height="720" viewBox="0 0 720 720">
  <defs>
    <linearGradient id="bg" x1="0" y1="0" x2="1" y2="1">
      <stop offset="0" stop-color="#FFF2EA"/>
      <stop offset="1" stop-color="#FFAA7A" stop-opacity=".42"/>
    </linearGradient>
    <filter id="shadow" x="-30%" y="-30%" width="160%" height="160%">
      <feDropShadow dx="0" dy="18" stdDeviation="22" flood-color="#6F4053" flood-opacity=".16"/>
    </filter>
  </defs>
  <rect width="720" height="720" rx="48" fill="url(#bg)"/>
  <circle cx="622" cy="102" r="154" fill="#FFAA7A" opacity=".18"/>
  <circle cx="80" cy="650" r="180" fill="#FFFFFF" opacity=".55"/>
  <rect x="58" y="48" width="208" height="48" rx="24" fill="#FFFFFF" opacity=".88"/>
  <text x="82" y="80" fill="#6F4053" font-size="22" font-weight="700" font-family="-apple-system,BlinkMacSystemFont,'PingFang SC','Microsoft YaHei',sans-serif">场景购演示封面</text>
  <g filter="url(#shadow)">
    <rect x="90" y="134" width="360" height="354" rx="72" fill="#FFFFFF" opacity=".92"/>
    <path d="M215 224h110l38 104H177l38-104Z" fill="none" stroke="#6F4053" stroke-width="18" stroke-linejoin="round"/><path d="M270 328v72m-58 0h116" stroke="#6F4053" stroke-width="18" stroke-linecap="round"/><circle cx="270" cy="278" r="18" fill="#6F4053" opacity=".9"/>
  </g>
  <rect x="474" y="182" width="174" height="48" rx="24" fill="#6F4053"/>
  <text x="561" y="214" text-anchor="middle" fill="#FFFFFF" font-size="21" font-weight="700" font-family="-apple-system,BlinkMacSystemFont,'PingFang SC','Microsoft YaHei',sans-serif">灯光氛围</text>
  <text x="470" y="296" fill="#6F4053" font-size="30" font-weight="650" font-family="-apple-system,BlinkMacSystemFont,'PingFang SC','Microsoft YaHei',sans-serif">推荐品类</text>
  <text x="470" y="368" fill="#6F4053" font-size="46" font-weight="800" font-family="-apple-system,BlinkMacSystemFont,'PingFang SC','Microsoft YaHei',sans-serif">台灯</text>
  <path d="M470 404h142" stroke="#FFAA7A" stroke-width="12" stroke-linecap="round"/>
  <rect x="58" y="536" width="604" height="126" rx="36" fill="#FFFFFF" opacity=".88"/>
  <text x="94" y="584" fill="#6F4053" font-size="23" font-weight="700" font-family="-apple-system,BlinkMacSystemFont,'PingFang SC','Microsoft YaHei',sans-serif">灯光氛围 · 冻结推荐样本</text>
  <text x="94" y="624" fill="#6F4053" fill-opacity=".68" font-size="19" font-family="-apple-system,BlinkMacSystemFont,'PingFang SC','Microsoft YaHei',sans-serif">非实时商品图，点击可前往淘宝搜索同类商品</text>
</svg>
